<?xml version="1.0" encoding="utf-8"?>
<!-- Generator: Adobe Illustrator 22.1.0, SVG Export Plug-In . SVG Version: 6.00 Build 0)  -->
<svg version="1.1" id="Layer_1" xmlns="http://www.w3.org/2000/svg" xmlns:xlink="http://www.w3.org/1999/xlink" x="0px" y="0px"
	 viewBox="0 0 303.3 85" style="enable-background:new 0 0 303.3 85;" xml:space="preserve">
<style type="text/css">
	.st0{fill:#EA0029;}
	.st1{clip-path:url(#SVGID_2_);fill:#EA0029;}
</style>
<path class="st0" d="M34.7,55.8v-5.3H40V34.6h-5.3v-5.4h10.6v21.2h5.4v5.3H34.7z M69.2,69V34.5h-5.3v29.2H21.5V21.3h29.2V16H16.2V69
	H69.2z M69.2,29.2v-8h8V16h-8V8h-5.3v8h-8v5.3h8v8H69.2z"/>
<g>
	<defs>
		<rect id="SVGID_1_" y="0" width="303.3" height="85"/>
	</defs>
	<clipPath id="SVGID_2_">
		<use xlink:href="#SVGID_1_"  style="overflow:visible;"/>
	</clipPath>
	<path class="st1" d="M125.4,38.5c0.4,1.2,0.6,2.5,0.6,4c0,1.5-0.2,2.8-0.6,4c-0.4,1.2-1,2.2-1.7,3c-0.7,0.8-1.6,1.4-2.7,1.9
		c-1.1,0.4-2.2,0.7-3.6,0.7c-1.3,0-2.5-0.2-3.6-0.7c-1.1-0.4-2-1.1-2.7-1.9c-0.7-0.8-1.3-1.8-1.7-3c-0.4-1.2-0.6-2.5-0.6-4
		c0-1.5,0.2-2.8,0.6-4c0.4-1.2,1-2.2,1.7-3c0.7-0.8,1.6-1.5,2.7-1.9c1.1-0.4,2.3-0.7,3.6-0.7c1.3,0,2.5,0.2,3.6,0.7
		c1.1,0.4,2,1.1,2.7,1.9C124.4,36.3,125,37.3,125.4,38.5 M193.7,31.8h-4.4V43h4.4c1.1,0,2-0.1,2.8-0.4c0.8-0.3,1.5-0.7,2-1.2
		c0.5-0.5,1-1.1,1.2-1.8c0.3-0.7,0.4-1.5,0.4-2.3c0-1.7-0.5-3.1-1.6-4.1C197.5,32.3,195.9,31.8,193.7,31.8 M287.1,69H87.7V16h199.4
		V69z M131.2,42.5c0-2-0.3-3.8-1-5.5c-0.7-1.7-1.6-3.2-2.8-4.4c-1.2-1.2-2.6-2.2-4.3-2.9c-1.7-0.7-3.6-1.1-5.6-1.1
		c-2,0-3.9,0.4-5.6,1c-1.7,0.7-3.1,1.7-4.4,2.9c-1.2,1.2-2.1,2.7-2.8,4.4c-0.7,1.7-1,3.5-1,5.5c0,2,0.3,3.8,1,5.5
		c0.7,1.7,1.6,3.2,2.8,4.4c1.2,1.2,2.7,2.2,4.4,2.9c1.7,0.7,3.6,1,5.6,1c2,0,3.9-0.3,5.6-1c1.7-0.7,3.1-1.7,4.3-2.9
		c1.2-1.2,2.1-2.7,2.8-4.4C130.8,46.3,131.2,44.5,131.2,42.5 M158,28.9h-4.4v16.5c0,0.4,0,0.8,0,1.2c0,0.4,0.1,0.8,0.1,1.3
		l-14.2-18.1c-0.1-0.2-0.3-0.3-0.4-0.4c-0.1-0.1-0.2-0.2-0.3-0.2c-0.1-0.1-0.2-0.1-0.4-0.1c-0.1,0-0.3,0-0.6,0h-2.6v27.1h4.4V39.4
		c0-0.3,0-0.7,0-1.1c0-0.4-0.1-0.8-0.1-1.2l14.2,18.1c0.2,0.3,0.5,0.6,0.8,0.7c0.3,0.1,0.6,0.2,1,0.2h2.6V28.9z M180.6,28.9h-17.1
		v27.1h17.1v-4h-12v-7.7h9.5v-3.9h-9.5V33h12V28.9z M203.9,37.3c0-1.3-0.2-2.4-0.6-3.5c-0.4-1-1-1.9-1.9-2.7
		c-0.8-0.7-1.9-1.3-3.2-1.7c-1.3-0.4-2.8-0.6-4.5-0.6h-8v27.2h3.7V45.9h4.4c1.6,0,3.1-0.2,4.3-0.6c1.3-0.4,2.3-1,3.2-1.8
		c0.9-0.8,1.5-1.7,1.9-2.7C203.6,39.7,203.9,38.6,203.9,37.3 M224,53h-11.8V28.9h-3.7v27.2H224V53z M249.4,28.9h-3.7v16.5
		c0,1.1-0.2,2.2-0.5,3.1c-0.3,0.9-0.8,1.8-1.4,2.5c-0.6,0.7-1.4,1.2-2.2,1.6c-0.9,0.4-1.9,0.6-3,0.6c-1.1,0-2.1-0.2-3-0.6
		c-0.9-0.4-1.7-0.9-2.3-1.6c-0.6-0.7-1.1-1.5-1.4-2.4c-0.3-0.9-0.5-2-0.5-3.1V28.9h-3.7v16.5c0,1.6,0.2,3,0.7,4.4
		c0.5,1.3,1.2,2.5,2.2,3.5c0.9,1,2.1,1.8,3.4,2.3c1.3,0.6,2.8,0.8,4.5,0.8c1.7,0,3.2-0.3,4.5-0.8c1.3-0.6,2.5-1.3,3.4-2.3
		c0.9-1,1.6-2.1,2.1-3.5c0.5-1.3,0.7-2.8,0.7-4.4V28.9z M271.2,47.8c0-1.1-0.2-2.1-0.6-2.8c-0.4-0.8-0.9-1.4-1.5-2
		c-0.6-0.5-1.3-1-2.1-1.3c-0.8-0.4-1.6-0.7-2.4-0.9c-0.8-0.3-1.6-0.5-2.4-0.8c-0.8-0.3-1.5-0.6-2.1-0.9c-0.6-0.4-1.1-0.8-1.5-1.3
		c-0.4-0.5-0.6-1.1-0.6-1.9c0-0.6,0.1-1.1,0.3-1.7c0.2-0.5,0.5-1,1-1.3c0.4-0.4,1-0.7,1.6-0.9c0.6-0.2,1.4-0.3,2.2-0.3
		c0.9,0,1.6,0.1,2.2,0.3c0.6,0.2,1.1,0.5,1.6,0.7c0.4,0.3,0.8,0.5,1.1,0.7c0.3,0.2,0.5,0.3,0.7,0.3c0.2,0,0.4,0,0.5-0.1
		c0.1-0.1,0.3-0.2,0.4-0.4l0.9-1.7c-0.9-0.9-2-1.6-3.3-2.1c-1.2-0.5-2.6-0.7-4.2-0.7c-1.4,0-2.6,0.2-3.6,0.6c-1,0.4-1.9,1-2.6,1.7
		c-0.7,0.7-1.3,1.5-1.6,2.4c-0.4,0.9-0.6,1.8-0.6,2.8c0,1.2,0.2,2.2,0.6,3c0.4,0.8,0.9,1.5,1.5,2c0.6,0.5,1.3,1,2.1,1.3
		c0.8,0.3,1.6,0.6,2.4,0.9c0.8,0.3,1.6,0.5,2.4,0.8c0.8,0.2,1.5,0.5,2.1,0.9c0.6,0.4,1.1,0.8,1.5,1.3c0.4,0.5,0.6,1.2,0.6,2
		c0,0.7-0.1,1.4-0.4,2c-0.3,0.6-0.6,1.1-1.1,1.6c-0.5,0.4-1.1,0.8-1.7,1c-0.7,0.2-1.5,0.4-2.3,0.4c-1.1,0-1.9-0.1-2.7-0.4
		c-0.7-0.3-1.3-0.6-1.9-0.9c-0.5-0.3-0.9-0.7-1.3-0.9c-0.3-0.3-0.6-0.4-0.9-0.4c-0.2,0-0.3,0-0.5,0.1c-0.1,0.1-0.3,0.2-0.4,0.3
		l-1.1,1.7c1,1.1,2.3,2,3.7,2.6c1.5,0.6,3,1,4.8,1c1.4,0,2.7-0.2,3.9-0.7c1.1-0.4,2.1-1.1,2.9-1.8c0.8-0.8,1.4-1.7,1.8-2.7
		C271,50.1,271.2,49,271.2,47.8"/>
</g>
</svg>
